<svg width="176" height="31" viewBox="0 0 176 31" fill="none" xmlns="http://www.w3.org/2000/svg">
<path d="M1.64386 15.5C7.40094 -3.83333 13.158 -3.83333 18.9151 15.5C24.6722 34.8333 30.4292 34.8333 36.1863 15.5C41.9434 -3.83333 47.7005 -3.83333 53.4576 15.5C59.2146 34.8333 64.9717 34.8333 70.7288 15.5C76.4859 -3.83333 82.2429 -3.83333 88 15.5C93.7571 34.8333 99.5142 34.8333 105.271 15.5C111.028 -3.83333 116.785 -3.83333 122.542 15.5C128.3 34.8333 134.057 34.8333 139.814 15.5C145.571 -3.83333 151.328 -3.83333 157.085 15.5C162.842 34.8333 168.599 34.8333 174.356 15.5" stroke="#40522D" stroke-width="2"/>
</svg>
